<svg xmlns="http://www.w3.org/2000/svg" version="1.1" xmlns:xlink="http://www.w3.org/1999/xlink" xmlns:svgjs="http://svgjs.com/svgjs" width="1440" height="250" preserveAspectRatio="none" viewBox="0 0 1440 250"><g mask="url(&quot;#SvgjsMask1000&quot;)" fill="none"><rect width="1440" height="250" x="0" y="0" fill="#0e2a47"></rect><path d="M17 250L267 0L315 0L65 250z" fill="url(#SvgjsLinearGradient1001)"></path><path d="M239.60000000000002 250L489.6 0L725.1 0L475.1 250z" fill="url(#SvgjsLinearGradient1001)"></path><path d="M500.20000000000005 250L750.2 0L930.2 0L680.2 250z" fill="url(#SvgjsLinearGradient1001)"></path><path d="M734.8000000000001 250L984.8000000000001 0L1098.8000000000002 0L848.8000000000001 250z" fill="url(#SvgjsLinearGradient1001)"></path><path d="M1435 250L1185 0L1000.5 0L1250.5 250z" fill="url(#SvgjsLinearGradient1002)"></path><path d="M1169.4 250L919.4000000000001 0L802.4000000000001 0L1052.4 250z" fill="url(#SvgjsLinearGradient1002)"></path><path d="M935.8 250L685.8 0L600.3 0L850.3 250z" fill="url(#SvgjsLinearGradient1002)"></path><path d="M682.1999999999999 250L432.19999999999993 0L288.19999999999993 0L538.1999999999999 250z" fill="url(#SvgjsLinearGradient1002)"></path><path d="M1232.4980235548403 250L1440 42.49802355484033L1440 250z" fill="url(#SvgjsLinearGradient1001)"></path><path d="M0 250L207.50197644515967 250L 0 42.49802355484033z" fill="url(#SvgjsLinearGradient1002)"></path></g><defs><mask id="SvgjsMask1000"><rect width="1440" height="250" fill="#ffffff"></rect></mask><linearGradient x1="0%" y1="100%" x2="100%" y2="0%" id="SvgjsLinearGradient1001"><stop stop-color="rgba(15, 70, 185, 0.2)" offset="0"></stop><stop stop-opacity="0" stop-color="rgba(15, 70, 185, 0.2)" offset="0.66"></stop></linearGradient><linearGradient x1="100%" y1="100%" x2="0%" y2="0%" id="SvgjsLinearGradient1002"><stop stop-color="rgba(15, 70, 185, 0.2)" offset="0"></stop><stop stop-opacity="0" stop-color="rgba(15, 70, 185, 0.2)" offset="0.66"></stop></linearGradient></defs></svg>